<?xml version="1.0" encoding="UTF-8"?>
<svg id="Calque_1" data-name="Calque 1" xmlns="http://www.w3.org/2000/svg" viewBox="0 0 244.89 308.67">
  <defs>
    <style>
      .cls-1 {
        fill: #021aa2;
      }
    </style>
  </defs>
  <path class="cls-1" d="M145.69,185.6v-.09c0-1.02-.07-2.04-.2-3.02-.16-1.22-.42-2.42-.76-3.57-2.82-9.32-11.48-16.1-21.73-16.1s-18.89,6.79-21.71,16.1h-47.5c3.42-35.15,33.07-62.61,69.11-62.61s65.69,27.46,69.11,62.61c.13,1.18.22,2.37.27,3.57.04,1.02.07,2.07.07,3.11v69.36h-45.55c0-1.31-.11-2.6-.33-3.86-.27-1.66-.71-3.24-1.31-4.75-3.44-8.66-11.9-14.81-21.82-14.81-11.74,0-21.47,8.62-23.18,19.87-.18,1.16-.27,2.35-.27,3.57h-46.22v-5.64c.67-10.63,3.79-20.6,8.77-29.35,8.33-14.57,21.89-25.78,38.12-31.06,6.64-2.17,13.72-3.33,21.07-3.33,8.26,0,16.74,1.47,24.07,4.16l-.03-4.16Z"/>
  <path class="cls-1" d="M98.16,80.53c0-3.9.67-7.5,2.01-10.8,1.34-3.3,3.19-6.14,5.55-8.54,2.36-2.4,5.18-4.25,8.48-5.55s6.89-1.95,10.8-1.95,7.5.65,10.8,1.95c3.3,1.3,6.12,3.15,8.48,5.55,2.36,2.4,4.21,5.25,5.55,8.54,1.34,3.3,2.01,6.89,2.01,10.8s-.67,7.5-2.01,10.8c-1.34,3.29-3.19,6.14-5.55,8.54s-5.18,4.25-8.48,5.55c-3.29,1.3-6.89,1.95-10.8,1.95s-7.5-.65-10.8-1.95c-3.3-1.3-6.12-3.15-8.48-5.55s-4.21-5.25-5.55-8.54c-1.34-3.3-2.01-6.89-2.01-10.8Z"/>
</svg>